<mxfile host="Electron" agent="Mozilla/5.0 (Windows NT 10.0; Win64; x64) AppleWebKit/537.36 (KHTML, like Gecko) draw.io/24.7.17 Chrome/128.0.6613.36 Electron/32.0.1 Safari/537.36" version="24.7.17">
  <diagram name="Page-1" id="sUo9FGuqbPIMQBmWdao-">
    <mxGraphModel dx="2465" dy="2055" grid="1" gridSize="10" guides="1" tooltips="1" connect="1" arrows="1" fold="1" page="1" pageScale="1" pageWidth="850" pageHeight="1100" math="0" shadow="0">
      <root>
        <mxCell id="0" />
        <mxCell id="1" parent="0" />
        <mxCell id="bRRUf5Y1aPT6_hJ3Ofhc-1" value="" style="rounded=0;whiteSpace=wrap;html=1;" parent="1" vertex="1">
          <mxGeometry x="80" y="-180" width="660" height="920" as="geometry" />
        </mxCell>
        <mxCell id="bRRUf5Y1aPT6_hJ3Ofhc-2" value="Owner" style="shape=umlActor;verticalLabelPosition=bottom;verticalAlign=top;html=1;outlineConnect=0;" parent="1" vertex="1">
          <mxGeometry x="-50" width="30" height="60" as="geometry" />
        </mxCell>
        <mxCell id="bRRUf5Y1aPT6_hJ3Ofhc-3" value="Track Inventory" style="ellipse;whiteSpace=wrap;html=1;" parent="1" vertex="1">
          <mxGeometry x="330" y="-170" width="120" height="80" as="geometry" />
        </mxCell>
        <mxCell id="bRRUf5Y1aPT6_hJ3Ofhc-4" value="&#xa;Place Order with Supplier&#xa;&#xa;" style="ellipse;whiteSpace=wrap;html=1;" parent="1" vertex="1">
          <mxGeometry x="230" y="170" width="120" height="80" as="geometry" />
        </mxCell>
        <mxCell id="bRRUf5Y1aPT6_hJ3Ofhc-5" value="Manage Custom Orders" style="ellipse;whiteSpace=wrap;html=1;" parent="1" vertex="1">
          <mxGeometry x="470" y="150" width="120" height="80" as="geometry" />
        </mxCell>
        <mxCell id="bRRUf5Y1aPT6_hJ3Ofhc-6" value="&#xa;Record Sales&#xa;&#xa;" style="ellipse;whiteSpace=wrap;html=1;" parent="1" vertex="1">
          <mxGeometry x="370" y="560" width="120" height="80" as="geometry" />
        </mxCell>
        <mxCell id="bRRUf5Y1aPT6_hJ3Ofhc-7" value="Process Sales" style="ellipse;whiteSpace=wrap;html=1;" parent="1" vertex="1">
          <mxGeometry x="290" y="430" width="120" height="80" as="geometry" />
        </mxCell>
        <mxCell id="bRRUf5Y1aPT6_hJ3Ofhc-8" value="Prepare Sales Reports" style="ellipse;whiteSpace=wrap;html=1;" parent="1" vertex="1">
          <mxGeometry x="160" y="360" width="120" height="80" as="geometry" />
        </mxCell>
        <mxCell id="bRRUf5Y1aPT6_hJ3Ofhc-9" value="Adjust Pricing" style="ellipse;whiteSpace=wrap;html=1;" parent="1" vertex="1">
          <mxGeometry x="230" y="10" width="120" height="80" as="geometry" />
        </mxCell>
        <mxCell id="bRRUf5Y1aPT6_hJ3Ofhc-11" value="Place Supplier&amp;nbsp;&lt;div&gt;Orders&amp;nbsp;(For Custom Orders)&lt;/div&gt;" style="ellipse;whiteSpace=wrap;html=1;" parent="1" vertex="1">
          <mxGeometry x="365" y="-60" width="120" height="80" as="geometry" />
        </mxCell>
        <mxCell id="bRRUf5Y1aPT6_hJ3Ofhc-12" value="Issuing receipts for sales" style="ellipse;whiteSpace=wrap;html=1;" parent="1" vertex="1">
          <mxGeometry x="430" y="320" width="120" height="80" as="geometry" />
        </mxCell>
        <mxCell id="bRRUf5Y1aPT6_hJ3Ofhc-13" value="Manage Supplier Information&lt;span style=&quot;color: rgba(0, 0, 0, 0); font-family: monospace; font-size: 0px; text-align: start; text-wrap: nowrap;&quot;&gt;%3CmxGraphModel%3E%3Croot%3E%3CmxCell%20id%3D%220%22%2F%3E%3CmxCell%20id%3D%221%22%20parent%3D%220%22%2F%3E%3CmxCell%20id%3D%222%22%20value%3D%22Employee%22%20style%3D%22shape%3DumlActor%3BverticalLabelPosition%3Dbottom%3BverticalAlign%3Dtop%3Bhtml%3D1%3BoutlineConnect%3D0%3B%22%20vertex%3D%221%22%20parent%3D%221%22%3E%3CmxGeometry%20x%3D%22780%22%20y%3D%22280%22%20width%3D%2230%22%20height%3D%2260%22%20as%3D%22geometry%22%2F%3E%3C%2FmxCell%3E%3C%2Froot%3E%3C%2FmxGraphModel%3E&lt;/span&gt;" style="ellipse;whiteSpace=wrap;html=1;" parent="1" vertex="1">
          <mxGeometry x="260" y="280" width="120" height="80" as="geometry" />
        </mxCell>
        <mxCell id="bRRUf5Y1aPT6_hJ3Ofhc-15" value="Cashier" style="shape=umlActor;verticalLabelPosition=bottom;verticalAlign=top;html=1;outlineConnect=0;" parent="1" vertex="1">
          <mxGeometry x="-30" y="470" width="30" height="60" as="geometry" />
        </mxCell>
        <mxCell id="bRRUf5Y1aPT6_hJ3Ofhc-17" value="" style="endArrow=none;html=1;rounded=0;entryX=0.067;entryY=0.678;entryDx=0;entryDy=0;entryPerimeter=0;" parent="1" source="bRRUf5Y1aPT6_hJ3Ofhc-2" target="bRRUf5Y1aPT6_hJ3Ofhc-5" edge="1">
          <mxGeometry width="50" height="50" relative="1" as="geometry">
            <mxPoint x="320" y="200" as="sourcePoint" />
            <mxPoint x="370" y="150" as="targetPoint" />
          </mxGeometry>
        </mxCell>
        <mxCell id="bRRUf5Y1aPT6_hJ3Ofhc-18" value="" style="endArrow=none;html=1;rounded=0;exitX=0;exitY=1;exitDx=0;exitDy=0;" parent="1" source="bRRUf5Y1aPT6_hJ3Ofhc-9" target="bRRUf5Y1aPT6_hJ3Ofhc-2" edge="1">
          <mxGeometry width="50" height="50" relative="1" as="geometry">
            <mxPoint x="320" y="200" as="sourcePoint" />
            <mxPoint x="370" y="150" as="targetPoint" />
          </mxGeometry>
        </mxCell>
        <mxCell id="bRRUf5Y1aPT6_hJ3Ofhc-19" value="" style="endArrow=none;html=1;rounded=0;exitX=0;exitY=0;exitDx=0;exitDy=0;" parent="1" source="bRRUf5Y1aPT6_hJ3Ofhc-4" target="bRRUf5Y1aPT6_hJ3Ofhc-2" edge="1">
          <mxGeometry width="50" height="50" relative="1" as="geometry">
            <mxPoint x="320" y="200" as="sourcePoint" />
            <mxPoint x="370" y="150" as="targetPoint" />
          </mxGeometry>
        </mxCell>
        <mxCell id="bRRUf5Y1aPT6_hJ3Ofhc-20" value="" style="endArrow=none;html=1;rounded=0;exitX=-0.008;exitY=0.653;exitDx=0;exitDy=0;exitPerimeter=0;" parent="1" source="bRRUf5Y1aPT6_hJ3Ofhc-7" target="bRRUf5Y1aPT6_hJ3Ofhc-15" edge="1">
          <mxGeometry width="50" height="50" relative="1" as="geometry">
            <mxPoint x="320" y="250" as="sourcePoint" />
            <mxPoint x="370" y="200" as="targetPoint" />
          </mxGeometry>
        </mxCell>
        <mxCell id="bRRUf5Y1aPT6_hJ3Ofhc-21" value="" style="endArrow=none;html=1;rounded=0;entryX=0.025;entryY=0.391;entryDx=0;entryDy=0;entryPerimeter=0;" parent="1" source="bRRUf5Y1aPT6_hJ3Ofhc-2" target="bRRUf5Y1aPT6_hJ3Ofhc-13" edge="1">
          <mxGeometry width="50" height="50" relative="1" as="geometry">
            <mxPoint y="110" as="sourcePoint" />
            <mxPoint x="370" y="200" as="targetPoint" />
          </mxGeometry>
        </mxCell>
        <mxCell id="bRRUf5Y1aPT6_hJ3Ofhc-22" value="" style="endArrow=none;html=1;rounded=0;" parent="1" source="bRRUf5Y1aPT6_hJ3Ofhc-15" target="bRRUf5Y1aPT6_hJ3Ofhc-8" edge="1">
          <mxGeometry width="50" height="50" relative="1" as="geometry">
            <mxPoint x="320" y="250" as="sourcePoint" />
            <mxPoint x="370" y="200" as="targetPoint" />
          </mxGeometry>
        </mxCell>
        <mxCell id="bRRUf5Y1aPT6_hJ3Ofhc-23" value="" style="endArrow=none;html=1;rounded=0;exitX=1;exitY=1;exitDx=0;exitDy=0;exitPerimeter=0;entryX=0.067;entryY=0.266;entryDx=0;entryDy=0;entryPerimeter=0;" parent="1" source="bRRUf5Y1aPT6_hJ3Ofhc-15" target="bRRUf5Y1aPT6_hJ3Ofhc-6" edge="1">
          <mxGeometry width="50" height="50" relative="1" as="geometry">
            <mxPoint x="320" y="540" as="sourcePoint" />
            <mxPoint x="370" y="490" as="targetPoint" />
          </mxGeometry>
        </mxCell>
        <mxCell id="bRRUf5Y1aPT6_hJ3Ofhc-27" value="" style="endArrow=none;html=1;rounded=0;entryX=0;entryY=0.5;entryDx=0;entryDy=0;" parent="1" source="bRRUf5Y1aPT6_hJ3Ofhc-2" target="bRRUf5Y1aPT6_hJ3Ofhc-3" edge="1">
          <mxGeometry width="50" height="50" relative="1" as="geometry">
            <mxPoint x="60" y="80" as="sourcePoint" />
            <mxPoint x="440" y="160" as="targetPoint" />
          </mxGeometry>
        </mxCell>
        <mxCell id="bRRUf5Y1aPT6_hJ3Ofhc-28" value="&amp;lt;&amp;lt;include&amp;gt;&amp;gt;" style="endArrow=open;endSize=12;dashed=1;html=1;rounded=0;" parent="1" source="bRRUf5Y1aPT6_hJ3Ofhc-7" target="bRRUf5Y1aPT6_hJ3Ofhc-12" edge="1">
          <mxGeometry width="160" relative="1" as="geometry">
            <mxPoint x="340" y="420" as="sourcePoint" />
            <mxPoint x="500" y="420" as="targetPoint" />
          </mxGeometry>
        </mxCell>
        <mxCell id="bRRUf5Y1aPT6_hJ3Ofhc-29" value="&amp;lt;&amp;lt;include&amp;gt;&amp;gt;" style="endArrow=open;endSize=12;dashed=1;html=1;rounded=0;entryX=0.5;entryY=1;entryDx=0;entryDy=0;" parent="1" source="bRRUf5Y1aPT6_hJ3Ofhc-5" target="bRRUf5Y1aPT6_hJ3Ofhc-11" edge="1">
          <mxGeometry width="160" relative="1" as="geometry">
            <mxPoint x="320" y="190" as="sourcePoint" />
            <mxPoint x="480" y="190" as="targetPoint" />
          </mxGeometry>
        </mxCell>
        <mxCell id="crMbujjVRhCyUGcWRh2M-1" value="sales associate" style="shape=umlActor;verticalLabelPosition=bottom;verticalAlign=top;html=1;outlineConnect=0;" parent="1" vertex="1">
          <mxGeometry x="820" y="300" width="30" height="60" as="geometry" />
        </mxCell>
        <mxCell id="crMbujjVRhCyUGcWRh2M-2" value="store manager" style="shape=umlActor;verticalLabelPosition=bottom;verticalAlign=top;html=1;outlineConnect=0;" parent="1" vertex="1">
          <mxGeometry x="820" y="30" width="30" height="60" as="geometry" />
        </mxCell>
        <mxCell id="crMbujjVRhCyUGcWRh2M-3" value="" style="endArrow=none;html=1;rounded=0;entryX=0.027;entryY=0.329;entryDx=0;entryDy=0;entryPerimeter=0;" parent="1" source="bRRUf5Y1aPT6_hJ3Ofhc-2" target="bRRUf5Y1aPT6_hJ3Ofhc-8" edge="1">
          <mxGeometry width="50" height="50" relative="1" as="geometry">
            <mxPoint x="-10" y="154.5" as="sourcePoint" />
            <mxPoint x="153" y="305.5" as="targetPoint" />
          </mxGeometry>
        </mxCell>
        <mxCell id="crMbujjVRhCyUGcWRh2M-4" value="" style="endArrow=none;html=1;rounded=0;entryX=0;entryY=0.3333333333333333;entryDx=0;entryDy=0;entryPerimeter=0;" parent="1" source="bRRUf5Y1aPT6_hJ3Ofhc-5" target="crMbujjVRhCyUGcWRh2M-1" edge="1">
          <mxGeometry width="50" height="50" relative="1" as="geometry">
            <mxPoint x="20" y="130" as="sourcePoint" />
            <mxPoint x="183" y="281" as="targetPoint" />
          </mxGeometry>
        </mxCell>
        <mxCell id="crMbujjVRhCyUGcWRh2M-5" value="" style="endArrow=none;html=1;rounded=0;exitX=1;exitY=0.5;exitDx=0;exitDy=0;" parent="1" source="bRRUf5Y1aPT6_hJ3Ofhc-7" target="crMbujjVRhCyUGcWRh2M-1" edge="1">
          <mxGeometry width="50" height="50" relative="1" as="geometry">
            <mxPoint x="490" y="380" as="sourcePoint" />
            <mxPoint x="653" y="531" as="targetPoint" />
          </mxGeometry>
        </mxCell>
        <mxCell id="crMbujjVRhCyUGcWRh2M-6" value="" style="endArrow=none;html=1;rounded=0;entryX=0;entryY=0.3333333333333333;entryDx=0;entryDy=0;entryPerimeter=0;exitX=0.974;exitY=0.376;exitDx=0;exitDy=0;exitPerimeter=0;" parent="1" source="bRRUf5Y1aPT6_hJ3Ofhc-11" target="crMbujjVRhCyUGcWRh2M-2" edge="1">
          <mxGeometry width="50" height="50" relative="1" as="geometry">
            <mxPoint x="510" y="230" as="sourcePoint" />
            <mxPoint x="673" y="381" as="targetPoint" />
          </mxGeometry>
        </mxCell>
        <mxCell id="crMbujjVRhCyUGcWRh2M-7" value="" style="endArrow=none;html=1;rounded=0;exitX=0.905;exitY=0.296;exitDx=0;exitDy=0;exitPerimeter=0;" parent="1" source="bRRUf5Y1aPT6_hJ3Ofhc-5" target="crMbujjVRhCyUGcWRh2M-2" edge="1">
          <mxGeometry width="50" height="50" relative="1" as="geometry">
            <mxPoint x="500" y="-11" as="sourcePoint" />
            <mxPoint x="663" y="140" as="targetPoint" />
          </mxGeometry>
        </mxCell>
        <mxCell id="crMbujjVRhCyUGcWRh2M-8" value="" style="endArrow=none;html=1;rounded=0;entryX=0.25;entryY=0.1;entryDx=0;entryDy=0;entryPerimeter=0;exitX=0.957;exitY=0.716;exitDx=0;exitDy=0;exitPerimeter=0;" parent="1" source="bRRUf5Y1aPT6_hJ3Ofhc-3" target="crMbujjVRhCyUGcWRh2M-2" edge="1">
          <mxGeometry width="50" height="50" relative="1" as="geometry">
            <mxPoint x="480" y="-100" as="sourcePoint" />
            <mxPoint x="643" y="51" as="targetPoint" />
          </mxGeometry>
        </mxCell>
        <mxCell id="crMbujjVRhCyUGcWRh2M-10" value="" style="endArrow=none;html=1;rounded=0;" parent="1" target="bRRUf5Y1aPT6_hJ3Ofhc-11" edge="1">
          <mxGeometry width="50" height="50" relative="1" as="geometry">
            <mxPoint x="-10" y="20" as="sourcePoint" />
            <mxPoint x="340" y="-120" as="targetPoint" />
          </mxGeometry>
        </mxCell>
      </root>
    </mxGraphModel>
  </diagram>
</mxfile>
